<?xml version="1.0" encoding="utf-8"?>
<!-- Generator: Adobe Illustrator 19.0.0, SVG Export Plug-In . SVG Version: 6.00 Build 0)  -->
<svg version="1.1" xmlns="http://www.w3.org/2000/svg" xmlns:xlink="http://www.w3.org/1999/xlink" x="0px" y="0px"
	 viewBox="0 0 202.5 164.3" style="enable-background:new 0 0 202.5 164.3;" xml:space="preserve">
<g id="Layer_1">
	<g id="XMLID_1_">
		<path id="XMLID_56_" d="M14.6,47.9V71H6.8V12h21.8c6.5,0,11.5,1.6,15.2,4.9c3.7,3.3,5.5,7.7,5.5,13.1c0,5.7-1.8,10.1-5.4,13.2
			c-3.6,3.1-8.7,4.6-15.4,4.6H14.6z M14.6,41.5h14c4.2,0,7.3-1,9.6-2.9c2.2-2,3.3-4.8,3.3-8.5c0-3.5-1.1-6.3-3.3-8.4
			c-2.2-2.1-5.3-3.2-9.1-3.3H14.6V41.5z"/>
		<path id="XMLID_59_" d="M69.1,33.9c-1.1-0.2-2.4-0.3-3.7-0.3c-4.9,0-8.3,2.1-10,6.3V71h-7.5V27.2h7.3l0.1,5.1
			c2.5-3.9,5.9-5.9,10.5-5.9c1.5,0,2.6,0.2,3.3,0.6V33.9z"/>
		<path id="XMLID_61_" d="M63.1,48.7c0-4.3,0.8-8.2,2.5-11.6c1.7-3.4,4-6.1,7.1-7.9s6.5-2.8,10.3-2.8c6,0,10.8,2.1,14.5,6.2
			c3.7,4.1,5.5,9.6,5.5,16.5v0.5c0,4.3-0.8,8.1-2.5,11.5s-4,6-7,7.9c-3,1.9-6.5,2.8-10.5,2.8c-5.9,0-10.8-2.1-14.4-6.2
			c-3.7-4.1-5.5-9.6-5.5-16.4V48.7z M70.6,49.6c0,4.9,1.1,8.8,3.4,11.7c2.3,2.9,5.3,4.4,9.1,4.4c3.8,0,6.8-1.5,9.1-4.5
			c2.2-3,3.4-7.2,3.4-12.5c0-4.8-1.1-8.7-3.4-11.7c-2.3-3-5.3-4.5-9.1-4.5c-3.7,0-6.7,1.5-9,4.4C71.7,39.9,70.6,44.1,70.6,49.6z"/>
		<path id="XMLID_64_" d="M129.3,66.7c-2.9,3.4-7.2,5.1-12.8,5.1c-4.7,0-8.2-1.4-10.7-4.1c-2.4-2.7-3.7-6.7-3.7-12.1V27.2h7.5v28.3
			c0,6.6,2.7,10,8.1,10c5.7,0,9.5-2.1,11.4-6.4V27.2h7.5V71h-7.1L129.3,66.7z"/>
		<path id="XMLID_66_" d="M136.1,48.7c0-6.7,1.6-12.1,4.8-16.2c3.2-4.1,7.4-6.1,12.5-6.1c5.1,0,9.2,1.8,12.2,5.3V8.8h7.5V71h-6.9
			l-0.4-4.7c-3,3.7-7.2,5.5-12.5,5.5c-5.1,0-9.2-2.1-12.4-6.2c-3.2-4.2-4.8-9.6-4.8-16.3V48.7z M143.6,49.6c0,5,1,8.9,3.1,11.7
			c2.1,2.8,4.9,4.2,8.5,4.2c4.8,0,8.2-2.1,10.4-6.4V38.9c-2.2-4.1-5.7-6.2-10.3-6.2c-3.7,0-6.5,1.4-8.6,4.3
			C144.6,39.8,143.6,44,143.6,49.6z"/>
	</g>
	<g id="XMLID_4_">
		<path id="XMLID_7_" d="M33,105.2c1.1,0,2.3-0.5,3-1.4l8.7-10.4c0.8-0.9,1.1-2.2,0.8-3.4c-0.3-1.2-1.1-2.2-2.2-2.7
			c0,0-17-8.1-18.7-8.1c0,0,0,0-0.1,0c-1.2,0-2.3,0.3-3.4,0.8c-0.2,0.1-16.2,8.3-16.2,8.3c-1.1,0.5-1.8,1.5-2.1,2.7
			c-0.2,1.2,0.1,2.4,0.8,3.3l9.2,11.2c0.8,1,1.9,1.5,3.1,1.5c0.2,0,0.4-0.1,0.5-0.1l1.3,15.3l-2.7,14.2c-0.5,2.5,1.2,4.9,3.7,5.4
			c0.3,0.1,0.6,0.1,0.9,0.1c2.2,0,4.1-1.5,4.5-3.7l2.9-14.8c0.1-0.4,0.1-0.8,0.1-1.3l-0.7-8.7c0,0,0,0,0.1,0l7.1,3.2l1.6,11.3
			c0.3,2.3,2.3,4,4.6,4c0.2,0,0.4,0,0.7,0c2.5-0.4,4.3-2.7,3.9-5.2l-2-13.8c-0.2-1.6-1.2-2.9-2.6-3.5l-7.3-3.4l0-0.7
			C32.7,105.1,32.8,105.2,33,105.2z M32.6,90.9l2.8,1.3l-2.9,3.4L32.6,90.9z M16.7,97.3l-3.6-4.4l3.6-1.9L16.7,97.3z"/>
		<path id="XMLID_6_" d="M30.1,77.5c4-1.4,6.1-5.8,4.7-9.9c-1.4-4-5.8-6.1-9.9-4.7c-4,1.4-6.1,5.8-4.7,9.9
			C21.7,76.8,26.1,78.9,30.1,77.5z"/>
		<path id="XMLID_5_" d="M51.4,133.6H31.1c-1.2,0-2.1,0.9-2.1,2.1v4.1c0,1.2,0.9,2.1,2.1,2.1h20.3c1.2,0,2.1-0.9,2.1-2.1v-4.1
			C53.5,134.5,52.5,133.6,51.4,133.6z"/>
	</g>
	<g id="XMLID_17_">
		<path id="XMLID_46_" d="M92.9,134c-2,2.9-4.8,5-8.4,6.4c-3.6,1.4-7.7,2.1-12.5,2.1c-4.8,0-9.1-1.1-12.8-3.4s-6.6-5.5-8.7-9.6
			c-2-4.2-3.1-9-3.1-14.5V110c0-8.9,2.1-15.8,6.2-20.7c4.1-4.9,10-7.3,17.5-7.3c6.2,0,11.1,1.6,14.9,4.7c3.8,3.1,6.1,7.6,6.9,13.4
			h-7.8c-1.5-7.8-6.1-11.8-13.9-11.8c-5.2,0-9.2,1.8-11.9,5.5s-4,9-4.1,15.9v4.8c0,6.6,1.5,11.9,4.5,15.8c3,3.9,7.1,5.9,12.3,5.9
			c2.9,0,5.5-0.3,7.7-1s4-1.7,5.4-3.3v-13.2H71.5v-6.4h21.4V134z"/>
		<path id="XMLID_48_" d="M112.7,142.6c-5.9,0-10.8-2-14.5-5.9s-5.6-9.1-5.6-15.7v-1.4c0-4.3,0.8-8.2,2.5-11.7c1.7-3.4,4-6.1,7-8
			c3-1.9,6.2-2.9,9.7-2.9c5.7,0,10.1,1.9,13.3,5.6c3.2,3.8,4.7,9.1,4.7,16.1v3.1h-29.7c0.1,4.3,1.4,7.8,3.8,10.5s5.5,4,9.2,4
			c2.6,0,4.9-0.5,6.7-1.6c1.8-1.1,3.4-2.5,4.8-4.3l4.6,3.6C125.6,139.8,120.1,142.6,112.7,142.6z M111.8,103.3c-3,0-5.6,1.1-7.6,3.3
			c-2.1,2.2-3.3,5.3-3.8,9.3h22v-0.6c-0.2-3.8-1.2-6.8-3.1-8.9C117.4,104.3,114.9,103.3,111.8,103.3z"/>
		<path id="XMLID_51_" d="M149.6,142.6c-5.9,0-10.8-2-14.5-5.9s-5.6-9.1-5.6-15.7v-1.4c0-4.3,0.8-8.2,2.5-11.7c1.7-3.4,4-6.1,7-8
			c3-1.9,6.2-2.9,9.7-2.9c5.7,0,10.1,1.9,13.3,5.6c3.2,3.8,4.7,9.1,4.7,16.1v3.1H137c0.1,4.3,1.4,7.8,3.8,10.5s5.5,4,9.2,4
			c2.6,0,4.9-0.5,6.7-1.6c1.8-1.1,3.4-2.5,4.8-4.3l4.6,3.6C162.4,139.8,156.9,142.6,149.6,142.6z M148.6,103.3c-3,0-5.6,1.1-7.6,3.3
			c-2.1,2.2-3.3,5.3-3.8,9.3h22v-0.6c-0.2-3.8-1.2-6.8-3.1-8.9C154.3,104.3,151.8,103.3,148.6,103.3z"/>
		<path id="XMLID_54_" d="M178.5,121.5l-4.7,4.9v15.4h-7.5V79.5h7.5v37.6l4-4.8l13.7-14.4h9.1l-17.1,18.3l19,25.5h-8.8L178.5,121.5z
			"/>
	</g>
	<g id="XMLID_18_">
		<path id="XMLID_39_" d="M179,70.8c-1.9,0-3.4-0.6-4.5-1.8s-1.8-2.9-1.8-4.9v-0.4c0-1.4,0.3-2.6,0.8-3.6s1.2-1.9,2.2-2.5
			s1.9-0.9,3-0.9c1.8,0,3.2,0.6,4.2,1.8s1.5,2.9,1.5,5.1v1H175c0,1.4,0.4,2.4,1.2,3.3s1.7,1.3,2.9,1.3c0.8,0,1.5-0.2,2.1-0.5
			s1.1-0.8,1.5-1.3l1.4,1.1C183,69.9,181.3,70.8,179,70.8z M178.7,58.4c-0.9,0-1.7,0.3-2.4,1s-1,1.7-1.2,2.9h6.9v-0.2
			c-0.1-1.2-0.4-2.1-1-2.8S179.7,58.4,178.7,58.4z"/>
		<path id="XMLID_42_" d="M191.9,66.9c0-0.6-0.2-1.1-0.7-1.5s-1.3-0.7-2.5-0.9s-2.1-0.6-2.8-0.9s-1.2-0.8-1.5-1.3s-0.5-1.1-0.5-1.8
			c0-1.1,0.5-2.1,1.4-2.9s2.2-1.2,3.6-1.2c1.6,0,2.8,0.4,3.8,1.2s1.5,1.8,1.5,3.1h-2.4c0-0.6-0.3-1.2-0.8-1.7s-1.2-0.7-2.1-0.7
			c-0.9,0-1.5,0.2-2,0.6s-0.7,0.9-0.7,1.5c0,0.6,0.2,1,0.7,1.3s1.3,0.6,2.4,0.8s2.1,0.6,2.9,0.9s1.3,0.8,1.6,1.3s0.5,1.1,0.5,1.9
			c0,1.2-0.5,2.2-1.5,3s-2.3,1.1-3.8,1.1c-1.1,0-2.1-0.2-2.9-0.6s-1.5-0.9-2-1.6s-0.7-1.5-0.7-2.3h2.3c0,0.8,0.4,1.4,0.9,1.9
			s1.4,0.7,2.3,0.7c0.9,0,1.6-0.2,2.1-0.5S191.9,67.5,191.9,66.9z"/>
		<path id="XMLID_44_" d="M197.3,53.4v3.3h2.6v1.8h-2.6v8.5c0,0.6,0.1,1,0.3,1.2s0.6,0.4,1.2,0.4c0.3,0,0.6-0.1,1.1-0.2v1.9
			c-0.6,0.2-1.2,0.3-1.8,0.3c-1,0-1.8-0.3-2.4-1s-0.8-1.5-0.8-2.7v-8.5h-2.5v-1.8h2.5v-3.3H197.3z"/>
	</g>
</g>
<g id="Layer_2">
</g>
</svg>
